<svg width="48" height="48" viewBox="0 0 48 48" fill="none" xmlns="http://www.w3.org/2000/svg">
<path fill-rule="evenodd" clip-rule="evenodd" d="M7.67115 7.67119C4.99997 10.3424 4.99997 14.6416 4.99997 23.24V24.76C4.99997 33.3584 4.99997 37.6576 7.67115 40.3288C10.3423 43 14.6416 43 23.24 43H24.76C33.3584 43 37.6576 43 40.3288 40.3288C43 37.6576 43 33.3584 43 24.76V23.24C43 14.6416 43 10.3424 40.3288 7.67119C37.6576 5 33.3584 5 24.76 5H23.24C14.6416 5 10.3423 5 7.67115 7.67119ZM11.4 16.6C11.6054 26.4691 16.5358 32.4 25.1798 32.4H25.6698V26.7537C28.8461 27.0701 31.248 29.395 32.2119 32.4H36.7C35.4674 27.9083 32.2277 25.4252 30.2049 24.4763C32.2277 23.3059 35.0722 20.4591 35.7517 16.6H31.6745C30.7895 19.7315 28.1666 22.5784 25.6698 22.8472V16.6H21.5926V27.5445C19.0642 26.9119 15.8721 23.8437 15.7299 16.6H11.4Z" fill="#99A2AD"/>
</svg>
